<?xml version="1.0" encoding="UTF-8"?>
<!DOCTYPE svg PUBLIC "-//W3C//DTD SVG 1.1//EN" "http://www.w3.org/Graphics/SVG/1.1/DTD/svg11.dtd">
<!-- Creator: CorelDRAW -->
<svg xmlns="http://www.w3.org/2000/svg" xml:space="preserve" width="100mm" height="100mm" version="1.1" style="shape-rendering:geometricPrecision; text-rendering:geometricPrecision; image-rendering:optimizeQuality; fill-rule:evenodd; clip-rule:evenodd"
viewBox="0 0 10000 10000"
 xmlns:xlink="http://www.w3.org/1999/xlink"
 xmlns:xodm="http://www.corel.com/coreldraw/odm/2003">
 <defs>
  <style type="text/css">
   <![CDATA[
    .fil2 {fill:#FEFEFE}
    .fil0 {fill:#D2CDE7}
    .fil1 {fill:#9089B0}
   ]]>
  </style>
 </defs>
 <g id="Слой_x0020_1">
  <metadata id="CorelCorpID_0Corel-Layer"/>
  <g id="_1957632507712">
   <path class="fil0" d="M3852.62 581.69c167.33,-39.11 367.97,-63.99 532.17,-63.99 164.2,0 291.98,24.88 387.81,47.99 95.83,23.11 159.72,44.44 243.78,37.33 84.07,-7.11 188.32,-42.66 303.58,-44.77 115.26,-2.11 241.53,29.22 357.79,66.55 116.26,37.33 222.52,80.65 338.08,111.08 115.57,30.43 240.44,47.98 347.31,56.86 106.88,8.89 195.76,9.12 299.94,0.35 104.18,-8.77 223.65,-26.54 320.25,-15.88 96.6,10.67 170.33,49.77 239.02,94.02 68.7,44.24 132.37,93.63 190.74,194.8 58.36,101.18 111.42,254.14 180.71,407.85 69.29,153.7 154.81,308.14 265.41,439.81 110.59,131.67 246.27,240.58 357.94,327.03 111.67,86.45 199.33,150.43 286.73,260.64 87.39,110.2 174.52,266.62 258.3,410.6 83.78,143.97 164.2,275.5 241.28,369.71 77.07,94.2 150.8,151.08 182.63,260.88 31.84,109.79 21.78,272.5 62.21,423.92 40.43,151.42 131.35,291.55 169.88,404.04 38.54,112.49 24.7,197.33 -7.35,298.27 -32.05,100.94 -82.32,217.98 -139.29,333.42 -56.96,115.44 -120.64,229.27 -149.12,356.39 -28.48,127.11 -21.78,267.5 -48.59,370.59 -26.81,103.1 -87.13,168.89 -140.75,328.32 -53.61,159.42 -100.53,412.49 -130.69,636.95 -30.16,224.46 -43.56,420.32 -78.75,560.93 -35.18,140.62 -92.15,225.98 -189.34,369.46 -97.18,143.47 -234.57,345.06 -423.91,541.84 -189.33,196.77 -430.61,388.74 -624.98,495.39 -194.36,106.65 -341.81,127.98 -480.88,159.97 -139.06,32 -269.76,74.66 -375.89,140.42 -106.13,65.77 -187.69,154.64 -333.51,200.85 -145.82,46.22 -355.9,49.78 -583.1,69.33 -227.2,19.55 -471.52,55.1 -645.2,94.2 -173.68,39.11 -276.73,81.77 -447.73,94.21 -171,12.44 -409.94,-5.33 -638.49,-35.55 -228.54,-30.22 -446.69,-72.88 -609.55,-133.35 -162.85,-60.47 -270.43,-138.76 -388.89,-198.46 -118.47,-59.7 -247.83,-100.81 -355.46,-162.98 -107.64,-62.18 -193.55,-145.41 -257.4,-207.74 -63.86,-62.32 -105.66,-103.75 -182.02,-169.52 -76.35,-65.76 -187.27,-155.87 -269.86,-259.58 -82.59,-103.71 -136.85,-221.03 -161.96,-317.01 -25.1,-95.98 -21.05,-170.64 -54.24,-245.08 -33.19,-74.44 -103.62,-148.66 -165.64,-252.19 -62.02,-103.53 -115.64,-236.36 -211.15,-360.66 -95.5,-124.31 -232.9,-240.1 -331.76,-380.08 -98.85,-139.99 -159.17,-304.17 -177.6,-444.92 -18.43,-140.75 5.02,-258.07 -11.73,-393.15 -16.76,-135.09 -73.73,-287.95 -112.26,-414.15 -38.54,-126.2 -58.64,-225.74 -92.16,-325.28 -33.51,-99.54 -80.42,-199.08 -80.42,-335.94 0,-136.87 46.91,-311.06 103.88,-481.13 56.97,-170.08 123.99,-336.03 194.37,-504.89 70.37,-168.86 144.09,-340.63 206.08,-502.1 62,-161.47 112.27,-312.65 160.27,-470.85 48,-158.19 93.74,-323.4 185.93,-445.11 92.18,-121.71 230.81,-199.92 323.55,-284.22 92.74,-84.31 139.6,-174.73 220.16,-261.82 80.57,-87.1 194.84,-170.88 342.24,-271.43 147.41,-100.55 327.96,-217.86 465.18,-344.06 137.23,-126.2 231.14,-261.29 340.09,-344.83 108.96,-83.54 232.95,-115.54 361.96,-158.19 129.02,-42.66 263.06,-95.99 430.4,-135.09z"/>
   <path class="fil1" d="M5311.4 1760.94c-12.06,189.94 24.68,491.4 20.96,826.71 -3.73,335.3 -47.92,704.43 32.55,987.61 80.46,283.16 285.58,480.36 559.52,564.03 273.94,83.66 616.69,53.79 987.83,23.19 371.15,-30.6 770.69,-61.93 950.65,-186.39 179.96,-124.47 140.35,-342.07 28.32,-602.11 -112.02,-260.04 -296.45,-562.51 -496.62,-803.18 -200.16,-240.67 -416.06,-419.54 -624.12,-579.05 -208.06,-159.51 -408.28,-299.65 -627.86,-392.69 -219.57,-93.03 -458.51,-138.95 -608.41,-122.7 -149.9,16.24 -210.76,94.64 -222.82,284.58z"/>
   <path class="fil1" d="M4559.99 3174.89c41.03,-356.71 32.67,-757.77 30.09,-1062.05 -2.57,-304.28 0.63,-511.78 -65.08,-601.85 -65.71,-90.07 -200.34,-62.71 -420.2,18.64 -219.86,81.34 -524.95,216.66 -764.97,360.87 -240.02,144.21 -414.97,297.3 -588.17,500.92 -173.19,203.63 -344.64,457.8 -477.76,680 -133.13,222.21 -227.94,412.46 -234.54,551.19 -6.59,138.73 75.04,225.94 286.22,288.39 211.18,62.45 551.92,100.14 908.93,136.91 357.01,36.76 730.3,72.6 962.16,-65.66 231.86,-138.27 322.29,-450.65 363.32,-807.36z"/>
   <path class="fil1" d="M3886.65 5039.16c-83.85,-85.26 -245.79,-107.36 -431.19,-165 -185.39,-57.65 -394.26,-150.84 -637.8,-231.92 -243.53,-81.1 -521.73,-150.08 -716.52,-172.49 -194.78,-22.41 -306.16,1.77 -345.42,155.77 -39.26,153.99 -6.4,437.81 47.53,734.07 53.93,296.26 128.93,604.97 208.72,888.79 79.79,283.81 164.38,542.73 265.34,684.64 100.96,141.9 218.3,166.8 335.65,107.05 117.34,-59.75 234.68,-204.15 395.27,-395.54 160.61,-191.39 364.46,-429.77 521.7,-599.07 157.23,-169.29 267.86,-269.49 335.44,-362.01 67.58,-92.52 92.13,-177.35 101.52,-293.98 9.39,-116.63 3.61,-265.06 -80.24,-350.31z"/>
   <path class="fil1" d="M4790.58 6157.07c-153.45,77 -330.43,208.09 -533.78,381.5 -203.35,173.4 -433.06,389.12 -628.38,541.64 -195.31,152.52 -356.24,241.83 -475.97,350.69 -119.74,108.86 -198.28,237.26 -77.13,393.56 121.15,156.3 442,340.5 739.94,477.32 297.94,136.82 572.97,226.26 898.31,235.25 325.33,8.99 700.98,-62.47 990.56,-136.99 289.58,-74.52 493.1,-152.11 590.25,-262.19 97.15,-110.08 87.95,-252.65 -44.86,-535.53 -132.81,-282.87 -389.22,-706.05 -584.1,-990.77 -194.88,-284.73 -328.22,-431 -459.85,-492.69 -131.62,-61.69 -261.53,-38.78 -414.99,38.21z"/>
   <path class="fil1" d="M6110.63 5648.76c92.55,197.64 247.01,502.7 366.29,800.43 119.27,297.72 203.36,588.09 302,767.62 98.63,179.52 211.82,248.2 324.88,251.92 113.06,3.71 226,-57.53 353.33,-208.79 127.33,-151.27 269.05,-392.54 388.74,-661.88 119.69,-269.33 217.34,-566.73 284.95,-843.91 67.6,-277.18 105.15,-534.15 109.84,-725.59 4.69,-191.44 -23.47,-317.33 -104.41,-359.25 -80.95,-41.91 -214.67,0.17 -540.89,72.37 -326.2,72.2 -844.89,174.51 -1150.08,267.7 -305.17,93.19 -396.84,177.24 -427.35,264.37 -30.51,87.14 0.14,177.36 92.7,375.01z"/>
   <path class="fil1" d="M9418.18 4370.51c38.54,112.49 24.7,197.33 -7.35,298.27 -32.05,100.94 -82.32,217.98 -139.29,333.42 -56.96,115.44 -120.64,229.27 -149.12,356.39 -28.48,127.11 -21.78,267.5 -48.59,370.59 -26.81,103.1 -87.13,168.89 -140.75,328.32 -53.61,159.42 -100.53,412.49 -130.69,636.95 -30.16,224.46 -43.56,420.32 -78.75,560.93 -35.18,140.62 -92.15,225.98 -189.34,369.46 -97.18,143.47 -234.57,345.06 -423.91,541.84 -189.33,196.77 -430.61,388.74 -624.98,495.39 -194.36,106.65 -341.81,127.98 -480.88,159.97 -139.06,32 -269.76,74.66 -375.89,140.42 -106.13,65.77 -187.69,154.64 -333.51,200.85 -145.82,46.22 -355.9,49.78 -583.1,69.33 -227.2,19.55 -471.52,55.1 -645.2,94.2 -173.68,39.11 -276.73,81.77 -447.73,94.21 -171,12.44 -409.94,-5.33 -638.49,-35.55 -228.54,-30.22 -446.69,-72.88 -609.55,-133.35 -162.85,-60.47 -270.43,-138.76 -388.89,-198.46 -118.47,-59.7 -247.83,-100.81 -355.46,-162.98 -107.64,-62.18 -193.55,-145.41 -257.4,-207.74 -63.86,-62.32 -105.66,-103.75 -182.02,-169.52 -76.35,-65.76 -187.27,-155.87 -269.86,-259.58 -82.59,-103.71 -136.85,-221.03 -161.96,-317.01 -25.1,-95.98 -21.05,-170.64 -54.24,-245.08 -33.19,-74.44 -103.62,-148.66 -165.64,-252.19 -62.02,-103.53 -115.64,-236.36 -211.15,-360.66 -95.5,-124.31 -232.9,-240.1 -331.76,-380.08 -98.85,-139.99 -159.17,-304.17 -177.6,-444.92 -18.43,-140.75 5.02,-258.07 -11.73,-393.15 -16.76,-135.09 -73.73,-287.95 -112.26,-414.15 -38.54,-126.2 -58.64,-225.74 -92.16,-325.28 -33.51,-99.54 -80.42,-199.08 -80.42,-335.94 0,-136.87 46.91,-311.06 103.88,-481.13 56.97,-170.08 123.99,-336.03 194.37,-504.89 70.37,-168.86 144.09,-340.63 206.08,-502.1 62,-161.47 112.27,-312.65 160.27,-470.85 48,-158.19 93.74,-323.4 185.93,-445.11 92.18,-121.71 230.81,-199.92 323.55,-284.22 92.74,-84.31 139.6,-174.73 220.16,-261.82 80.57,-87.1 194.84,-170.88 342.24,-271.43 147.41,-100.55 327.96,-217.86 465.18,-344.06 137.23,-126.2 231.14,-261.29 340.09,-344.83 108.96,-83.54 232.95,-115.54 361.96,-158.19 129.02,-42.66 263.06,-95.99 430.4,-135.09 167.33,-39.11 367.97,-63.99 532.17,-63.99 164.2,0 291.98,24.88 387.81,47.99 95.83,23.11 159.72,44.44 243.78,37.33 84.07,-7.11 188.32,-42.66 303.58,-44.77 115.26,-2.11 241.53,29.22 357.79,66.55 116.26,37.33 222.52,80.65 338.08,111.08 115.57,30.43 240.44,47.98 347.31,56.86 106.88,8.89 195.76,9.12 299.94,0.35 104.18,-8.77 223.65,-26.54 320.25,-15.88 96.6,10.67 170.33,49.77 239.02,94.02 68.7,44.24 132.37,93.63 190.74,194.8 58.36,101.18 111.42,254.14 180.71,407.85 69.29,153.7 154.81,308.14 265.41,439.81 110.59,131.67 246.27,240.58 357.94,327.03 111.67,86.45 199.33,150.43 286.73,260.64 87.39,110.2 174.52,266.62 258.3,410.6 83.78,143.97 164.2,275.5 241.28,369.71 77.07,94.2 150.8,151.08 182.63,260.88 31.84,109.79 21.78,272.5 62.21,423.92 40.43,151.42 131.35,291.55 169.88,404.04zm-4522.44 -4146.87c-321.26,-33.61 -640.21,-151.29 -903.16,-197.49 -262.94,-46.2 -469.87,-20.91 -690.3,77.18 -220.41,98.1 -454.32,269.01 -670.02,420.69 -215.71,151.67 -413.21,284.1 -587.06,434.96 -173.85,150.86 -324.04,320.16 -493.01,464.55 -168.98,144.4 -356.72,263.9 -510.85,483.84 -154.13,219.93 -274.64,540.3 -392.68,824.12 -118.03,283.81 -233.59,531.07 -356.39,853.87 -122.8,322.79 -252.83,721.13 -286.57,1124.44 -33.74,403.31 28.82,811.61 87.49,1140.24 58.67,328.62 113.45,577.59 213.6,756.84 100.14,179.25 245.65,288.79 362.99,485.47 117.34,196.67 206.52,480.49 373.31,768.27 166.8,287.79 411.21,579.54 631.8,845.79 220.58,266.27 417.35,507.03 663.59,669.86 246.25,162.84 541.98,247.74 913.18,362.29 371.19,114.54 817.84,258.73 1268.11,265.02 450.26,6.29 904.14,-125.32 1229.97,-182.47 325.83,-57.16 523.62,-39.86 845.46,-81.01 321.85,-41.14 767.75,-140.73 1079.87,-305.04 312.13,-164.31 490.49,-393.36 722.83,-652.28 232.34,-258.92 518.65,-547.71 682.93,-871.36 164.28,-323.64 206.52,-682.15 316.82,-1058.07 110.3,-375.93 288.66,-769.29 420.08,-1182.56 131.43,-413.28 215.91,-846.47 161.93,-1289.61 -53.97,-443.15 -246.41,-896.26 -415.39,-1185.05 -168.96,-288.8 -314.47,-413.27 -424.77,-542.73 -110.3,-129.46 -185.4,-263.9 -307.44,-425.72 -122.03,-161.83 -291,-351.04 -471.71,-634.85 -180.71,-283.82 -373.15,-662.24 -647.73,-916.18 -274.58,-253.94 -631.29,-383.4 -953.07,-449.36 -321.78,-65.97 -608.61,-68.45 -913.81,-44.47 -305.19,23.99 -628.75,74.44 -950,40.82z"/>
   <path class="fil2" d="M4887.05 4375.91c136.55,-33.1 278.41,-20.89 389.94,7.25 111.53,28.13 192.73,72.19 276.06,158.08 83.32,85.89 168.79,213.6 175.64,371.99 6.86,158.38 -64.89,347.43 -147.95,473.07 -83.05,125.63 -177.42,187.84 -276.73,221.43 -99.31,33.59 -203.56,38.56 -292.11,31.43 -88.55,-7.13 -161.4,-26.35 -232.62,-65.19 -71.23,-38.85 -140.84,-97.31 -196.72,-159.49 -55.88,-62.19 -98.05,-128.11 -125.79,-201.81 -27.74,-73.7 -41.05,-155.19 -33.43,-264.3 7.62,-109.1 36.17,-245.82 116.06,-353.38 79.89,-107.57 211.11,-185.98 347.65,-219.08zm778.37 2235.64c161.59,236.09 365.49,567.38 506.15,834.93 136.24,-43.68 258.63,-86.39 355.31,-127.27 104.71,-44.27 179.26,-86.42 238.71,-127.48 -93,-180.78 -174.8,-458.31 -288.67,-742.54 -119.28,-297.73 -273.74,-602.79 -366.29,-800.43 -92.56,-197.65 -123.21,-287.87 -92.7,-375.01 30.51,-87.13 122.18,-171.18 427.35,-264.37 305.19,-93.19 823.88,-195.5 1150.08,-267.7 93.4,-20.67 171.03,-38.88 236.15,-53.35 3.31,-62.38 4.1,-123.11 -1.31,-179.75 -9.13,-95.58 -35.92,-179.53 -80.96,-266.06 -29.92,-57.46 -67.88,-116.07 -108.56,-175.05 -201.78,52.36 -471.88,73.86 -728.42,95.01 -371.14,30.6 -713.89,60.47 -987.83,-23.19 -273.94,-83.67 -479.06,-280.87 -559.52,-564.03 -80.47,-283.18 -36.28,-652.31 -32.55,-987.61 3.66,-329.75 -31.81,-626.76 -21.52,-817.17 -36.77,-9.58 -75.3,-18.23 -117.03,-25.19 -93.44,-15.58 -202.9,-22.65 -297.01,-14.16 -94.1,8.5 -172.86,32.57 -237.6,69.39 -26.06,14.82 -49.85,31.7 -72.28,49.82 2.1,77.07 2.34,164.79 3.16,262.5 2.58,304.28 10.94,705.34 -30.09,1062.05 -41.03,356.71 -131.46,669.09 -363.32,807.36 -231.86,138.26 -605.15,102.42 -962.16,65.66 -357.01,-36.77 -697.75,-74.46 -908.93,-136.91 -16.73,-4.95 -32.65,-10.05 -47.77,-15.32 -20.94,29.22 -41.05,58.79 -59.55,89.05 -38.36,62.77 -69.8,128.49 -91.07,196.17 -21.26,67.68 -32.36,137.32 -30.51,216.28 0.55,23.46 2.24,47.74 4.74,72.6 194.78,22.44 472.82,91.4 716.24,172.46 243.54,81.08 452.41,174.27 637.8,231.92 185.4,57.64 347.34,79.74 431.19,165 83.85,85.25 89.63,233.68 80.24,350.31 -9.39,116.63 -33.94,201.46 -101.52,293.98 -67.58,92.52 -178.21,192.72 -335.44,362.01 -157.24,169.3 -361.09,407.68 -521.7,599.07 -71.93,85.72 -135.18,162.02 -193.64,225.51 16.58,43.64 35.28,88.03 57.96,133.85 48.5,97.93 115.2,202.34 199.74,297.22 32.95,36.99 68.61,72.52 105.92,107.17 116.68,-99.06 268.58,-186.24 450.21,-328.07 195.32,-152.52 425.03,-368.24 628.38,-541.64 203.35,-173.41 380.33,-304.5 533.78,-381.5 153.46,-76.99 283.37,-99.9 414.99,-38.21 131.63,61.69 264.97,207.96 459.85,492.69z"/>
  </g>
 </g>
</svg>
