<?xml version="1.0" standalone="no"?>
<!DOCTYPE svg PUBLIC "-//W3C//DTD SVG 20010904//EN"
 "http://www.w3.org/TR/2001/REC-SVG-20010904/DTD/svg10.dtd">
<svg version="1.0" xmlns="http://www.w3.org/2000/svg"
 width="700.000000pt" height="700.000000pt" viewBox="0 0 700.000000 700.000000"
 preserveAspectRatio="xMidYMid meet">
<metadata>
Created by potrace 1.14, written by Peter Selinger 2001-2017
</metadata>
<g transform="translate(0.000000,700.000000) scale(0.100000,-0.100000)"
fill="#000000" stroke="none">
<path d="M2525 6990 c-177 -24 -318 -99 -750 -405 -269 -190 -319 -230 -495
-400 -80 -77 -210 -195 -290 -261 -80 -66 -165 -143 -189 -170 -99 -112 -171
-244 -300 -552 -43 -103 -121 -288 -173 -412 -174 -412 -250 -640 -300 -905
-33 -173 -33 -530 0 -755 35 -237 88 -492 127 -608 42 -124 78 -186 175 -302
112 -134 157 -208 251 -418 151 -334 230 -455 560 -859 192 -235 386 -433 494
-503 144 -93 236 -130 625 -251 451 -141 686 -189 927 -189 167 0 306 18 613
80 291 58 345 66 555 80 282 19 431 42 655 101 275 73 453 166 619 323 77 74
452 489 542 601 179 223 245 367 334 732 67 276 104 392 219 700 215 576 268
793 269 1113 1 254 -42 463 -149 722 -102 252 -205 419 -368 603 -59 66 -141
170 -183 230 -42 61 -136 187 -209 280 -149 193 -211 283 -349 510 -138 227
-196 306 -311 420 -113 113 -223 186 -367 246 -312 128 -618 162 -1085 120
-281 -25 -502 -27 -633 -5 -52 9 -188 40 -304 69 -276 70 -375 82 -510 65z
m775 -382 c142 -30 207 -33 326 -13 136 22 200 13 423 -59 91 -30 204 -62 251
-72 89 -18 273 -23 505 -14 118 5 121 4 185 -26 76 -36 160 -109 195 -168 13
-22 51 -106 85 -186 135 -319 217 -428 474 -634 200 -160 208 -170 399 -491
59 -99 141 -220 182 -270 41 -49 82 -105 91 -123 8 -17 22 -87 30 -155 19
-166 26 -189 96 -346 55 -122 62 -143 61 -201 0 -83 -31 -174 -128 -379 -86
-182 -92 -202 -110 -364 -12 -108 -18 -134 -55 -212 -23 -50 -51 -114 -61
-144 -30 -85 -75 -327 -104 -556 -39 -313 -47 -339 -150 -496 -151 -232 -293
-402 -443 -532 -223 -194 -368 -274 -604 -331 -196 -48 -245 -67 -356 -143
-171 -115 -196 -123 -507 -148 -231 -19 -414 -45 -570 -81 -60 -14 -139 -33
-175 -41 -87 -20 -316 -19 -490 2 -313 38 -475 83 -655 180 -65 35 -165 85
-223 110 -142 62 -191 95 -334 227 -350 322 -383 368 -429 611 -8 43 -26 80
-72 150 -35 51 -88 140 -120 197 -61 112 -89 149 -234 310 -159 177 -213 313
-213 539 0 168 -8 200 -157 681 -84 273 -66 359 231 1084 58 142 138 358 177
480 39 122 85 247 101 278 32 60 111 141 214 219 34 26 98 92 142 146 94 117
126 144 332 288 234 163 265 188 399 327 68 70 145 141 171 158 59 38 431 163
568 190 203 42 379 44 552 8z"/>
<path d="M2914 5946 c-55 -19 -168 -64 -252 -101 -442 -195 -671 -387 -943
-792 -228 -339 -317 -538 -289 -644 28 -102 143 -151 475 -198 408 -59 766
-77 899 -47 221 52 325 209 382 574 22 141 33 1036 14 1128 -26 123 -98 143
-286 80z"/>
<path d="M3825 5959 c-37 -10 -79 -53 -92 -94 -6 -19 -9 -254 -7 -635 3 -679
5 -695 73 -835 70 -142 209 -253 376 -300 103 -29 375 -31 680 -5 463 39 625
79 700 173 26 34 30 48 33 116 3 63 -1 91 -23 156 -58 175 -176 387 -324 585
-242 323 -717 692 -1026 795 -147 50 -309 68 -390 44z"/>
<path d="M1302 3860 c-34 -15 -47 -29 -64 -67 -56 -125 3 -566 147 -1091 132
-483 226 -652 360 -652 95 0 136 35 399 344 226 266 275 321 452 507 56 59
114 127 128 152 58 99 70 281 25 375 -27 56 -90 92 -223 128 -56 15 -173 54
-261 87 -335 124 -456 161 -676 207 -167 35 -228 37 -287 10z"/>
<path d="M5590 3744 c-14 -3 -68 -16 -120 -29 -52 -13 -223 -51 -380 -85 -503
-109 -686 -162 -793 -230 -62 -39 -87 -81 -87 -145 0 -55 27 -122 184 -454
105 -223 116 -249 216 -516 43 -115 91 -239 106 -275 88 -206 220 -285 360
-215 292 145 666 1042 691 1655 6 152 -8 229 -49 267 -24 23 -83 35 -128 27z"/>
<path d="M3445 2727 c-143 -48 -295 -156 -615 -437 -210 -184 -300 -258 -397
-326 -126 -88 -218 -157 -251 -188 -78 -72 -93 -161 -41 -239 106 -161 608
-422 949 -494 116 -24 392 -24 545 1 465 75 755 186 805 306 24 59 8 163 -43
284 -26 60 -59 127 -73 150 -14 22 -62 104 -106 181 -238 414 -432 671 -559
740 -61 33 -152 42 -214 22z"/>
</g>
</svg>
